<?xml version="1.0" standalone="no"?>
<svg xmlns="http://www.w3.org/2000/svg" xmlns:xlink="http://www.w3.org/1999/xlink" height="200px" width="450px">
  <defs>
    <pattern id="doodad" width="49" height="49" viewBox="0 0 40 40" patternUnits="userSpaceOnUse" patternTransform="rotate(196)">
      <rect width="100%" height="100%" fill="rgba(5, 73, 255,1)"/>
      <path d="M10 0L20 10L30 0L30 10L40 10L30 20L40 30L30 30L30 40L20 30L10 40L10 30L0 30L10 20L0 10L10 10z" fill="rgba(9, 28, 69,1)"/>
      <path d="M0 10L20 10L10 20zM30 0L30 20L20 10zM40 30L20 30L30 20zM10 40L20 30L10 20z" fill="rgba(255, 69, 139,1)"/>
    </pattern>
  </defs>
  <rect fill="url(#doodad)" height="200%" width="200%"/>
</svg>
